PathFileType	4	(X/Y/Z)	21_coords_data.trc
DataRate	CameraRate	NumFrames	NumMarkers	Units	OrigDataRate	OrigDataStartFrame	OrigNumFrames
30.0	30.0	8	21	m	30.0	54	64
Frame#	Time	THUMB_TIP	THUMB_IP	THUMB_MCP	THUMB_CMC	INDEX_TIP	INDEX_DIP	INDEX_PIP	INDEX_MCP	MIDDLE_TIP	MIDDLE_DIP	MIDDLE_PIP	MIDDLE_MCP	RING_TIP	RING_DIP	RING_PIP	RING_MCP	PINKY_TIP	PINKY_DIP	PINKY_PIP	PINKY_MCP	WRIST
X1	Y1	Z1	X2	Y2	Z2	X3	Y3	Z3	X4	Y4	Z4	X5	Y5	Z5	X6	Y6	Z6	X7	Y7	Z7	X8	Y8	Z8	X9	Y9	Z9	X10	Y10	Z10	X11	Y11	Z11	X12	Y12	Z12	X13	Y13	Z13	X14	Y14	Z14	X15	Y15	Z15	X16	Y16	Z16	X17	Y17	Z17	X18	Y18	Z18	X19	Y19	Z19	X20	Y20	Z20	X21	Y21	Z21
53	1.7666666666666666	-0.006041659832000733	-0.02450659942626953	0.8617670288085938	-0.01800830078125	-0.01564610004425049	0.886906982421875	-0.03139410018920898	-0.00916604995727539	0.9161740112304687	-0.045845401763916015	0.011135100364685058	0.942219970703125	-0.002693909883499145	0.02125119972229004	0.8069979858398437	-0.015109600067138672	0.016548900604248046	0.82752001953125	-0.029761600494384765	0.01248069953918457	0.8460599975585937	-0.05235710144042969	0.007658370018005371	0.8814169921875	-0.002544670104980468	0.05261180114746094	0.8065120239257813	-0.018040700912475584	0.04527130126953125	0.8237139892578125	-0.03801890182495117	0.03835380172729492	0.844301025390625	-0.060317798614501955	0.030009700775146485	0.8829409790039062	-0.006688240051269531	0.07172329711914062	0.8184609985351563	-0.022220199584960937	0.06520890045166015	0.8355650024414063	-0.04040599822998047	0.05831219863891601	0.8553779907226563	-0.06028620147705078	0.048366500854492185	0.8906599731445313	-0.01934429931640625	0.08234480285644531	0.8422960205078125	-0.029460100173950194	0.07773970031738281	0.8602059936523437	-0.040104801177978516	0.07272270202636719	0.87522802734375	-0.055239200592041016	0.06428730010986328	0.9006370239257813	-0.07727960205078124	0.02586389923095703	0.967405029296875
54	1.8	-0.006057819843292236	-0.023862199783325197	0.8615269775390625	-0.017974700927734375	-0.01505150032043457	0.8867379760742188	-0.03129400062561035	-0.008718020439147949	0.9158109741210938	-0.04581119918823242	0.01152299976348877	0.9421820068359374	-0.0031735999584197997	0.021860300064086916	0.8064539794921874	-0.015428600311279296	0.017117099761962892	0.8272379760742188	-0.029920400619506834	0.012956299781799317	0.8457890014648437	-0.05241730117797851	0.008178449630737305	0.8813569946289063	-0.002898299932479858	0.05328409957885742	0.8061510009765624	-0.018265499114990234	0.04592580032348633	0.8238369750976563	-0.038143299102783204	0.03900540161132812	0.8441209716796875	-0.06033679962158203	0.030499799728393555	0.8828250122070312	-0.00696327018737793	0.07242800140380859	0.8182930297851563	-0.02252389907836914	0.06578289794921875	0.8355040283203125	-0.04053060150146484	0.05889559936523438	0.8553359985351563	-0.060266101837158206	0.04886309814453125	0.8905029907226563	-0.019462200164794923	0.08296939849853516	0.8422589721679687	-0.029670400619506834	0.07834339904785156	0.8598099975585938	-0.040181800842285155	0.07328399658203125	0.875197998046875	-0.05550299835205078	0.06477179718017578	0.90060400390625	-0.07744740295410156	0.02634230041503906	0.9672689819335938
55	1.8333333333333333	-0.006445010185241699	-0.023986900329589844	0.8613480224609374	-0.018286699295043944	-0.015122599601745605	0.886552978515625	-0.031542900085449216	-0.008740309715270997	0.9156510009765625	-0.04615480041503906	0.011450699806213379	0.9422249755859375	-0.003758650064468384	0.02174370002746582	0.8060159912109375	-0.01589080047607422	0.017081899642944334	0.8269869995117187	-0.03029960060119629	0.012998200416564942	0.8457459716796875	-0.052558998107910156	0.00820145034790039	0.8811749877929688	-0.003112610101699829	0.0532510986328125	0.8059010009765625	-0.018374500274658204	0.0459896011352539	0.8239359741210938	-0.03822819900512695	0.03894110107421875	0.8440050048828125	-0.06043220138549805	0.03049370002746582	0.88272998046875	-0.00709492015838623	0.07236499786376953	0.8178179931640625	-0.022523599624633787	0.06588469696044921	0.8354400024414063	-0.04054869842529297	0.0589375	0.8553150024414062	-0.060350101470947264	0.04897190093994141	0.8902130126953125	-0.01928770065307617	0.08298040008544921	0.8422340087890625	-0.029562000274658204	0.078377197265625	0.860135986328125	-0.040076301574707034	0.07312969970703125	0.8751589965820312	-0.0555546989440918	0.06478160095214844	0.9005980224609375	-0.07755039978027344	0.026221500396728516	0.9673480224609375
56	1.8666666666666667	-0.0065950298309326175	-0.024177099227905275	0.8612860107421875	-0.018536800384521483	-0.015348999977111817	0.8864500122070312	-0.031952999114990235	-0.008966870307922363	0.9154609985351563	-0.04637459945678711	0.011253399848937988	0.9419929809570312	-0.003901730060577392	0.02145719909667969	0.8059810180664062	-0.016025999069213866	0.016828800201416017	0.8269569702148437	-0.030411500930786133	0.012773799896240234	0.8456680297851562	-0.05281800079345703	0.00805778980255127	0.881218017578125	-0.003419090032577514	0.05301160049438477	0.8056749877929688	-0.018671499252319337	0.04575749969482422	0.8236229858398437	-0.03833480072021484	0.03872620010375977	0.8438579711914063	-0.06063209915161133	0.030375	0.8826389770507812	-0.007230989933013916	0.07214550018310546	0.8180070190429688	-0.022716400146484374	0.06559629821777344	0.8352999877929688	-0.04072850036621094	0.05870529937744141	0.8551890258789062	-0.06058409881591797	0.04875139999389649	0.8904500122070312	-0.019620500564575195	0.08283470153808593	0.8420490112304687	-0.02981049919128418	0.07820790100097656	0.8599990234375	-0.04014440155029297	0.07301000213623046	0.875197998046875	-0.05568339920043945	0.06462480163574219	0.9004559936523437	-0.07785230255126953	0.02607589912414551	0.9668800048828124
57	1.9	-0.006745269775390625	-0.02428969955444336	0.861114013671875	-0.018663700103759766	-0.015462800025939942	0.8862680053710937	-0.03201499938964844	-0.009128179550170899	0.9153419799804687	-0.04647019958496094	0.011069899559020996	0.9418829956054687	-0.004447629928588867	0.02126759910583496	0.80593701171875	-0.01646940040588379	0.01661319923400879	0.8264569702148438	-0.030744400024414063	0.012447299957275391	0.8453410034179687	-0.053051300048828125	0.007875800132751465	0.8809860229492188	-0.003872750043869018	0.05280759811401367	0.8053900146484375	-0.019063400268554687	0.04543170166015625	0.822905029296875	-0.03872050094604492	0.03850730133056641	0.843656005859375	-0.06084329986572266	0.030134899139404297	0.8823770141601562	-0.00785191011428833	0.0718820037841797	0.8172730102539062	-0.02311269950866699	0.06537740325927735	0.834947021484375	-0.04107469940185547	0.05842779922485351	0.85489599609375	-0.06078300094604492	0.048378501892089844	0.8902369995117188	-0.020093999862670898	0.08240139770507812	0.8415059814453125	-0.030191099166870117	0.07785369873046875	0.8596599731445312	-0.040526599884033204	0.0727301025390625	0.874927001953125	-0.05578419876098633	0.06431600189208984	0.9001400146484375	-0.07805290222167968	0.025975400924682618	0.9665999755859375
58	1.9333333333333333	-0.006761199951171875	-0.0244197998046875	0.8610599975585937	-0.01878160095214844	-0.01558549976348877	0.8862680053710937	-0.03215950012207031	-0.009309679985046386	0.9151510009765625	-0.0467505989074707	0.010900300025939941	0.9416920166015625	-0.004868050098419189	0.021077400207519532	0.80568798828125	-0.016615499496459962	0.016386199951171875	0.8266500244140625	-0.03097249984741211	0.012286999702453612	0.8451430053710938	-0.05323870086669922	0.007665510177612305	0.8808900146484375	-0.004156579971313476	0.052644199371337894	0.8051240234375	-0.01931999969482422	0.045254798889160154	0.822843017578125	-0.039053001403808595	0.038330001831054686	0.8435139770507812	-0.06109989929199219	0.02993350028991699	0.8822919921875	-0.008154589653015137	0.07178559875488282	0.8170709838867187	-0.023379499435424805	0.06519439697265625	0.8347960205078125	-0.04135589981079101	0.058272899627685545	0.8548359985351562	-0.06100149917602539	0.04828680038452148	0.8899229736328125	-0.02033889961242676	0.08238089752197265	0.841323974609375	-0.030224599838256837	0.07768360137939453	0.8595989990234375	-0.04048320007324219	0.07264250183105468	0.8749329833984375	-0.05611130142211914	0.06412300109863281	0.9002119750976563	-0.07800530242919922	0.025760000228881835	0.9664810180664063
59	1.9666666666666666	-0.006716899871826172	-0.024728599548339843	0.861052001953125	-0.018821699142456055	-0.015840100288391112	0.8862269897460937	-0.03225279998779297	-0.009494050025939942	0.9152670288085938	-0.04682109832763672	0.010683799743652344	0.9415349731445313	-0.004880710124969483	0.020908199310302734	0.80556298828125	-0.016676200866699218	0.016238399505615234	0.8264569702148438	-0.031018699645996094	0.012167699813842773	0.8450189819335937	-0.053233501434326175	0.007508950233459473	0.8805910034179687	-0.004115429878234864	0.05255929946899414	0.8050360107421874	-0.019411800384521484	0.04518740081787109	0.8226220092773437	-0.03906439971923828	0.03820800018310547	0.8433670043945313	-0.06114789962768555	0.029845300674438476	0.8821069946289063	-0.008111669540405273	0.07164189910888671	0.8170819702148437	-0.023340299606323243	0.0651167984008789	0.8347139892578125	-0.041337600708007814	0.05816600036621094	0.8546900024414062	-0.06103749847412109	0.04822570037841797	0.8898729858398438	-0.020394699096679687	0.08234359741210938	0.8411649780273438	-0.030643800735473632	0.07766280364990234	0.8590980224609375	-0.04047679901123047	0.07259660339355468	0.8748809814453125	-0.05578969955444336	0.06412449645996093	0.9000009765625	-0.07827359771728516	0.02567970085144043	0.9665960083007813
60	2.0	-0.0066417698860168455	-0.024835199356079102	0.86106201171875	-0.01879050064086914	-0.015971599578857423	0.8862030029296875	-0.03219240188598633	-0.009593440055847167	0.915073974609375	-0.046860099792480465	0.010629599571228027	0.941551025390625	-0.004883170127868652	0.020779499053955076	0.8051530151367188	-0.016636600494384767	0.016165399551391603	0.8263629760742187	-0.030963800430297853	0.012094300270080566	0.8449450073242187	-0.05324800109863281	0.007434269905090332	0.8805460205078125	-0.004117239952087402	0.05242509841918945	0.8049039916992188	-0.019290899276733397	0.045093700408935546	0.8226199951171875	-0.03908280181884766	0.03816740036010742	0.8433770141601562	-0.06104919815063477	0.029786699295043944	0.8821279907226562	-0.008034930229187012	0.07157779693603515	0.8170189819335938	-0.02325110054016113	0.0650602035522461	0.8345919799804687	-0.04125389862060547	0.05809000015258789	0.85460302734375	-0.06086410140991211	0.048130901336669925	0.8897429809570313	-0.020180200576782225	0.08216899871826172	0.8412589721679687	-0.030474199295043945	0.07752940368652343	0.8589019775390625	-0.04060490036010742	0.07249189758300781	0.8745230102539062	-0.0558302001953125	0.06399610137939453	0.8999970092773437	-0.07814089965820313	0.02548579978942871	0.9663889770507812
